<svg xmlns="http://www.w3.org/2000/svg" viewBox="0 0 48 48" fill="none">
  <rect width="48" height="48" rx="8" fill="#6366f1"/>
  <g fill="#fff">
    <path d="M24 24 L24 20 L28 28 L28 44 L40 44 L44 44 L44 48 L44 48 L28 40 L44 40 L40 44 L44 28 40 28 24 44 Z"/>
    <path d="M16 24 L16 28 L28 32 L32 L32 40 Q36 36 Q40 40 L40 32 L40 32 L36 16 L24"/>
    <path d="M8 24 L8 28 L28 32 L32 Q36 36 Q40 32 L40 32L40 32 L36 16L@10.24z" stroke="#fff" stroke-linecap="round"/>
    <line x1="16" y1="24" x2="24" y2="24" stroke="#fff" stroke-linecap="round"/>
    <line x1="8" y1="32" x2="24" y2="32" stroke="#fff" stroke-linecap="round"/>
  </g>
</svg>
